HIERARCHY
ROOT Hips
{
    OFFSET 0.000000 0.000000 0.000000
    CHANNELS 6 Xposition Yposition Zposition Zrotation Xrotation Yrotation
    JOINT Spine
    {
        OFFSET -0.000000 14.517291 0.000000
        CHANNELS 3 Zrotation Xrotation Yrotation
        JOINT Spine1
        {
            OFFSET -0.000000 37.558300 0.000000
            CHANNELS 3 Zrotation Xrotation Yrotation
            JOINT Neck
            {
                OFFSET -0.000000 37.404057 3.400369
                CHANNELS 3 Zrotation Xrotation Yrotation
                JOINT Head
                {
                    OFFSET -0.000000 24.785618 -3.540803
                    CHANNELS 3 Zrotation Xrotation Yrotation
                    End Site
                    {
                        OFFSET -0.000000 35.408028 0.000000
                    }
                }
            }
            JOINT LeftShoulder
            {
                OFFSET 6.992933 33.973492 -0.192664
                CHANNELS 3 Zrotation Xrotation Yrotation
                JOINT LeftArm
                {
                    OFFSET 21.527611 0.000000 0.000000
                    CHANNELS 3 Zrotation Xrotation Yrotation
                    JOINT LeftForeArm
                    {
                        OFFSET 56.353916 0.000000 0.000000
                        CHANNELS 3 Zrotation Xrotation Yrotation
                        JOINT LeftHand
                        {
                            OFFSET 47.774071 0.000000 0.000000
                            CHANNELS 3 Zrotation Xrotation Yrotation
                            End Site
                            {
                                OFFSET 26.556021 0.000000 0.000000
                            }
                        }
                    }
                }
            }
            JOINT RightShoulder
            {
                OFFSET -7.065357 33.973492 -0.192664
                CHANNELS 3 Zrotation Xrotation Yrotation
                JOINT RightArm
                {
                    OFFSET -21.527611 0.000000 0.000000
                    CHANNELS 3 Zrotation Xrotation Yrotation
                    JOINT RightForeArm
                    {
                        OFFSET -56.353916 0.000000 0.000000
                        CHANNELS 3 Zrotation Xrotation Yrotation
                        JOINT RightHand
                        {
                            OFFSET -47.774071 0.000000 0.000000
                            CHANNELS 3 Zrotation Xrotation Yrotation
                            End Site
                            {
                                OFFSET -26.556021 0.000000 0.000000
                            }
                        }
                    }
                }
            }
        }
    }
    JOINT LeftUpLeg
    {
        OFFSET 17.704014 0.000000 0.000000
        CHANNELS 3 Zrotation Xrotation Yrotation
        JOINT LeftLeg
        {
            OFFSET -0.000000 -81.181816 0.000000
            CHANNELS 3 Zrotation Xrotation Yrotation
            JOINT LeftFoot
            {
                OFFSET -0.000000 -62.821102 0.000000
                CHANNELS 3 Zrotation Xrotation Yrotation
                JOINT LeftToeBase
                {
                    OFFSET -0.000000 -11.507608 26.556021
                    CHANNELS 3 Zrotation Xrotation Yrotation
                    End Site
                    {
                        OFFSET -0.000000 0.000000 7.081605
                    }
                }
            }
        }
    }
    JOINT RightUpLeg
    {
        OFFSET -17.704014 0.000000 0.000000
        CHANNELS 3 Zrotation Xrotation Yrotation
        JOINT RightLeg
        {
            OFFSET -0.000000 -81.181816 0.000000
            CHANNELS 3 Zrotation Xrotation Yrotation
            JOINT RightFoot
            {
                OFFSET -0.000000 -62.821102 0.000000
                CHANNELS 3 Zrotation Xrotation Yrotation
                JOINT RightToeBase
                {
                    OFFSET -0.000000 -11.507608 26.556021
                    CHANNELS 3 Zrotation Xrotation Yrotation
                    End Site
                    {
                        OFFSET -0.000000 0.000000 7.081605
                    }
                }
            }
        }
    }
}
MOTION
Frames:    6
Frame Time:    0.008333
30.303547    155.456711    -101.336548    2.022386    -1.747742    25.911188    1.001289    -0.438941    -3.808099    -10.745888    -0.003339    -1.271101    8.704191    13.069604    -8.477417    10.783018    -9.465430    -6.685613    12.439151    -4.949898    -14.959915    -25.706219    -33.588348    -36.492317    -14.043867    -41.401382    -86.801826    -39.888271    -38.758678    -43.863380    -17.833157    1.047173    -10.394229    20.934769    18.523638    10.632659    19.728853    -18.717323    9.673646    -28.148886    -37.104538    67.187599    2.048652    -6.811938    -0.857963    -14.138010    36.969727    -16.859423    16.231283    -22.355213    45.827328    0.000000    0.000000    0.000000    -14.463560    -25.633118    17.044762    6.693341    20.074903    -0.742065    -2.942101    4.138441    -12.352554    0.000000    0.000000    0.000000    
30.347597    155.472916    -101.436661    2.041920    -1.725762    25.837038    0.997948    -0.415756    -3.776144    -10.739919    -0.040161    -1.263825    8.672525    13.079923    -8.472815    10.827373    -9.473841    -6.668316    12.418787    -4.965551    -14.949821    -25.662380    -33.661118    -36.413189    -14.112441    -41.314308    -86.867981    -39.841801    -38.756680    -43.841652    -17.867321    1.072111    -10.412589    21.765892    18.667931    10.854660    19.693903    -18.717035    9.616534    -28.185339    -37.123611    67.216545    1.993481    -6.801745    -0.855942    -14.156343    36.870075    -16.855429    16.243668    -22.297710    45.874050    0.000000    0.000000    0.000000    -14.573344    -25.592402    16.525856    6.637117    19.938345    -0.874643    -3.471816    4.421324    -12.471743    0.000000    0.000000    0.000000    
30.390274    155.490204    -101.525749    2.064067    -1.716327    25.770645    0.997834    -0.401678    -3.750631    -10.747008    -0.038440    -1.255144    8.659666    13.071248    -8.464176    10.860937    -9.483726    -6.651210    12.414669    -4.994713    -14.919278    -25.648941    -33.720192    -36.375423    -14.126609    -41.248978    -86.889610    -39.868675    -38.691246    -43.849594    -17.880508    1.054424    -10.411810    21.778053    18.693104    10.846511    19.664040    -18.739126    9.616493    -28.223177    -37.158485    67.204514    1.943177    -6.780707    -0.851876    -14.170482    36.778812    -16.828478    16.247982    -22.245226    45.891350    0.000000    0.000000    0.000000    -14.684007    -25.550911    16.043070    6.605758    19.825733    -1.047461    -4.030921    4.710410    -12.552335    0.000000    0.000000    0.000000    
30.428320    155.507584    -101.609634    2.082808    -1.699018    25.701921    0.992148    -0.396587    -3.726081    -10.745555    -0.034388    -1.246534    8.659844    13.045909    -8.445550    10.863751    -9.480139    -6.633524    12.405894    -5.027465    -14.893598    -25.614388    -33.718742    -36.320465    -14.097958    -41.266090    -86.917419    -39.916336    -38.663151    -43.885262    -17.886194    1.050706    -10.418587    21.781420    18.731659    10.855336    19.620167    -18.762930    9.625332    -28.266047    -37.198772    67.195267    1.897240    -6.762743    -0.845841    -14.189873    36.679760    -16.815832    16.260029    -22.190863    45.922348    0.000000    0.000000    0.000000    -14.801363    -25.522850    15.523467    6.587120    19.726763    -1.415429    -4.512521    4.960518    -12.524487    0.000000    0.000000    0.000000    
30.468208    155.528015    -101.687851    2.100751    -1.680965    25.635242    0.987831    -0.393818    -3.705714    -10.758657    -0.107048    -1.246585    8.681639    13.199749    -8.435526    10.879312    -9.561553    -6.600245    12.396002    -4.967412    -14.948501    -25.570744    -33.822987    -36.219387    -14.151460    -41.192345    -86.970482    -39.892258    -38.651817    -43.867729    -17.875259    1.103861    -10.302068    21.002699    18.587364    10.597232    19.620167    -18.762930    9.625332    -28.266047    -37.198772    67.195267    1.845266    -6.751485    -0.823675    -14.180980    36.600235    -16.825506    16.264847    -22.127226    45.942001    0.000000    0.000000    0.000000    -14.917244    -25.488844    15.023235    6.562124    19.645926    -1.545326    -4.941910    5.138707    -12.748363    0.000000    0.000000    0.000000    
30.506432    155.549545    -101.763168    2.120445    -1.652484    25.567144    0.974395    -0.400392    -3.682761    -10.748315    -0.116682    -1.239823    8.668945    13.194392    -8.419471    10.877903    -9.553907    -6.584573    12.372059    -4.978458    -14.925560    -25.571590    -33.897110    -36.186123    -14.197298    -41.121082    -87.014885    -39.916885    -38.611931    -43.868267    -17.889940    1.131425    -10.299726    21.816410    18.720745    10.803630    19.527004    -18.735807    9.642281    -28.421665    -37.224838    67.070946    1.783078    -6.745420    -0.803101    -14.165190    36.510963    -16.805124    16.248755    -22.082966    45.952457    0.000000    0.000000    0.000000    -15.041343    -25.470573    14.529799    6.539102    19.573944    -1.631656    -5.349124    5.302776    -13.051429    0.000000    0.000000    0.000000    
